<mxfile host="65bd71144e">
    <diagram id="7e1BOODKqAPveXaUndRe" name="API">
        <mxGraphModel dx="755" dy="418" grid="0" gridSize="10" guides="1" tooltips="1" connect="1" arrows="1" fold="1" page="1" pageScale="1" pageWidth="827" pageHeight="1169" background="#0F0C57" math="0" shadow="0">
            <root>
                <mxCell id="0"/>
                <mxCell id="1" parent="0"/>
                <mxCell id="4" value="" style="edgeStyle=elbowEdgeStyle;elbow=vertical;startArrow=none;endArrow=none;rounded=0;" parent="1" edge="1">
                    <mxGeometry relative="1" as="geometry">
                        <mxPoint x="150" y="275" as="sourcePoint"/>
                        <mxPoint x="250" y="275" as="targetPoint"/>
                    </mxGeometry>
                </mxCell>
                <mxCell id="10" value="" style="sketch=0;pointerEvents=1;shadow=0;dashed=0;html=1;strokeColor=none;aspect=fixed;labelPosition=center;verticalLabelPosition=bottom;verticalAlign=top;align=center;outlineConnect=0;shape=mxgraph.vvd.endpoint;fillColor=#ffffff;" vertex="1" parent="1">
                    <mxGeometry x="360" y="10" width="107.53" height="100" as="geometry"/>
                </mxCell>
                <mxCell id="14" value="" style="sketch=0;html=1;dashed=0;whitespace=wrap;fillColor=#2875E2;strokeColor=#ffffff;points=[[0.005,0.63,0],[0.1,0.2,0],[0.9,0.2,0],[0.5,0,0],[0.995,0.63,0],[0.72,0.99,0],[0.5,1,0],[0.28,0.99,0]];shape=mxgraph.kubernetes.icon;prIcon=api" vertex="1" parent="1">
                    <mxGeometry x="495" y="300" width="50" height="48" as="geometry"/>
                </mxCell>
                <mxCell id="15" value="" style="shape=mxgraph.gcp2.doubleRect;strokeColor=#dddddd;shadow=1;strokeWidth=1;" vertex="1" parent="1">
                    <mxGeometry x="41" y="218" width="148" height="68" as="geometry"/>
                </mxCell>
                <mxCell id="16" value="&lt;font color=&quot;#000000&quot;&gt;Name&lt;/font&gt;&lt;br&gt;API Analytics" style="sketch=0;dashed=0;connectable=0;html=1;fillColor=#5184F3;strokeColor=none;shape=mxgraph.gcp2.hexIcon;prIcon=api_analytics;part=1;labelPosition=right;verticalLabelPosition=middle;align=left;verticalAlign=middle;spacingLeft=5;fontColor=#999999;fontSize=12;" vertex="1" parent="15">
                    <mxGeometry y="0.5" width="44" height="39" relative="1" as="geometry">
                        <mxPoint x="5" y="-19.5" as="offset"/>
                    </mxGeometry>
                </mxCell>
                <mxCell id="17" value="" style="sketch=0;points=[[0,0,0],[0.25,0,0],[0.5,0,0],[0.75,0,0],[1,0,0],[0,1,0],[0.25,1,0],[0.5,1,0],[0.75,1,0],[1,1,0],[0,0.25,0],[0,0.5,0],[0,0.75,0],[1,0.25,0],[1,0.5,0],[1,0.75,0]];outlineConnect=0;fontColor=#232F3E;gradientColor=#945DF2;gradientDirection=north;fillColor=#5A30B5;strokeColor=#ffffff;dashed=0;verticalLabelPosition=bottom;verticalAlign=top;align=center;html=1;fontSize=12;fontStyle=0;aspect=fixed;shape=mxgraph.aws4.resourceIcon;resIcon=mxgraph.aws4.api_gateway;" vertex="1" parent="1">
                    <mxGeometry x="634" y="388" width="78" height="78" as="geometry"/>
                </mxCell>
                <mxCell id="18" value="" style="strokeColor=#dddddd;shadow=1;strokeWidth=1;rounded=1;absoluteArcSize=1;arcSize=2;" vertex="1" parent="1">
                    <mxGeometry x="153" y="401" width="130" height="60" as="geometry"/>
                </mxCell>
                <mxCell id="19" value="Apigee API&#10;Platform" style="sketch=0;dashed=0;connectable=0;html=1;fillColor=#5184F3;strokeColor=none;shape=mxgraph.gcp2.hexIcon;prIcon=apigee_api_platform;part=1;labelPosition=right;verticalLabelPosition=middle;align=left;verticalAlign=middle;spacingLeft=5;fontColor=#999999;fontSize=12;" vertex="1" parent="18">
                    <mxGeometry y="0.5" width="44" height="39" relative="1" as="geometry">
                        <mxPoint x="5" y="-19.5" as="offset"/>
                    </mxGeometry>
                </mxCell>
                <mxCell id="20" value="" style="outlineConnect=0;dashed=0;verticalLabelPosition=bottom;verticalAlign=top;align=center;html=1;shape=mxgraph.aws3.api_gateway;fillColor=#D9A741;gradientColor=none;" vertex="1" parent="1">
                    <mxGeometry x="458" y="135" width="76.5" height="93" as="geometry"/>
                </mxCell>
                <mxCell id="21" value="" style="strokeColor=#dddddd;shadow=1;strokeWidth=1;rounded=1;absoluteArcSize=1;arcSize=2;" vertex="1" parent="1">
                    <mxGeometry x="317" y="304" width="100" height="60" as="geometry"/>
                </mxCell>
                <mxCell id="22" value="Vision&#10;API" style="sketch=0;dashed=0;connectable=0;html=1;fillColor=#5184F3;strokeColor=none;shape=mxgraph.gcp2.hexIcon;prIcon=cloud_vision_api;part=1;labelPosition=right;verticalLabelPosition=middle;align=left;verticalAlign=middle;spacingLeft=5;fontColor=#999999;fontSize=12;" vertex="1" parent="21">
                    <mxGeometry y="0.5" width="44" height="39" relative="1" as="geometry">
                        <mxPoint x="5" y="-19.5" as="offset"/>
                    </mxGeometry>
                </mxCell>
                <mxCell id="23" value="" style="strokeColor=#dddddd;shadow=1;strokeWidth=1;rounded=1;absoluteArcSize=1;arcSize=2;" vertex="1" parent="1">
                    <mxGeometry x="317" y="411" width="110" height="60" as="geometry"/>
                </mxCell>
                <mxCell id="24" value="Speech&#10;API" style="sketch=0;dashed=0;connectable=0;html=1;fillColor=#5184F3;strokeColor=none;shape=mxgraph.gcp2.hexIcon;prIcon=cloud_speech_api;part=1;labelPosition=right;verticalLabelPosition=middle;align=left;verticalAlign=middle;spacingLeft=5;fontColor=#999999;fontSize=12;" vertex="1" parent="23">
                    <mxGeometry y="0.5" width="44" height="39" relative="1" as="geometry">
                        <mxPoint x="5" y="-19.5" as="offset"/>
                    </mxGeometry>
                </mxCell>
            </root>
        </mxGraphModel>
    </diagram>
    <diagram id="iE4qbivwQkqmd13VRZPO" name="AI">
        <mxGraphModel dx="990" dy="418" grid="0" gridSize="10" guides="1" tooltips="1" connect="1" arrows="1" fold="1" page="1" pageScale="1" pageWidth="827" pageHeight="1169" math="0" shadow="0">
            <root>
                <mxCell id="EZ0jeiB98gC51kCzS3ux-0"/>
                <mxCell id="EZ0jeiB98gC51kCzS3ux-1" parent="EZ0jeiB98gC51kCzS3ux-0"/>
                <mxCell id="rYyZD-xNqTDl_huKkhzn-21" style="edgeStyle=none;html=1;" edge="1" parent="EZ0jeiB98gC51kCzS3ux-1" source="rYyZD-xNqTDl_huKkhzn-18" target="rYyZD-xNqTDl_huKkhzn-19">
                    <mxGeometry relative="1" as="geometry"/>
                </mxCell>
                <mxCell id="rYyZD-xNqTDl_huKkhzn-24" style="edgeStyle=none;html=1;exitX=1;exitY=0.5;exitDx=0;exitDy=0;" edge="1" parent="EZ0jeiB98gC51kCzS3ux-1" source="rYyZD-xNqTDl_huKkhzn-2" target="rYyZD-xNqTDl_huKkhzn-6">
                    <mxGeometry relative="1" as="geometry"/>
                </mxCell>
                <mxCell id="rYyZD-xNqTDl_huKkhzn-2" value="" style="image;html=1;image=img/lib/clip_art/people/Scientist_Man_Black_128x128.png" vertex="1" parent="EZ0jeiB98gC51kCzS3ux-1">
                    <mxGeometry y="187" width="80" height="80" as="geometry"/>
                </mxCell>
                <mxCell id="rYyZD-xNqTDl_huKkhzn-25" style="edgeStyle=none;html=1;exitX=1;exitY=0.5;exitDx=0;exitDy=0;" edge="1" parent="EZ0jeiB98gC51kCzS3ux-1" source="rYyZD-xNqTDl_huKkhzn-6" target="rYyZD-xNqTDl_huKkhzn-16">
                    <mxGeometry relative="1" as="geometry"/>
                </mxCell>
                <mxCell id="rYyZD-xNqTDl_huKkhzn-6" value="" style="editableCssRules=.*;shape=image;verticalLabelPosition=bottom;labelBackgroundColor=#ffffff;verticalAlign=top;aspect=fixed;imageAspect=0;image=data:image/svg+xml,PHN2ZyB4bWxucz0iaHR0cDovL3d3dy53My5vcmcvMjAwMC9zdmciIHhtbG5zOnY9Imh0dHBzOi8vdmVjdGEuaW8vbmFubyIgd2lkdGg9IjIwLjAwMDQ2MzQ4NTcxNzc3MyIgaGVpZ2h0PSIxNi42MzE1MTU1MDI5Mjk2ODgiIHZpZXdCb3g9IjAgMC4wMDAyNDE0MDk2NTI1MTcxNzcxNiAyMC4wMDA0NjM0ODU3MTc3NzMgMTYuNjMxNTE1NTAyOTI5Njg4Ij4mI3hhOwk8c3R5bGUgdHlwZT0idGV4dC9jc3MiPiYjeGE7CS5zdDB7ZmlsbDojNjY5ZGY2O30mI3hhOwkuc3Qxe2ZpbGw6IzQyODVmNDt9JiN4YTsJPC9zdHlsZT4mI3hhOwk8cGF0aCBjbGFzcz0ic3QwIiBkPSJNLjAxIDMuMzA2aDYuNjR2MS42N0guMDF6bS0uMDEgMTBoMCA5LjE3di0xLjY3SDB6bTAtNC4xN2g0LjE4SDEwbC0xLjY3LTEuNjZIMi41MSAweiIvPiYjeGE7CTxwYXRoIGNsYXNzPSJzdDEiIGQ9Ik0xMCA1LjM4NmEuNDIuNDIgMCAwIDEgLjQyLS4zNi40MS40MSAwIDAgMSAuNDEuMzZ2OS4xOGEyLjA5IDIuMDkgMCAwIDAgMi42MSAyIDIuMTYgMi4xNiAwIDAgMCAxLjU2LTIuMTFWMi4wNjZhLjQuNCAwIDAgMSAuMTktLjQuNDEuNDEgMCAwIDEgLjQ1IDAgLjQuNCAwIDAgMSAuMTkuNHY5LjE2YTIuMDcgMi4wNyAwIDAgMCAuODEgMS42NCAyIDIgMCAwIDAgMS44LjM3IDIuMTYgMi4xNiAwIDAgMCAxLjU2LTIuMTJ2LTIuOGgtMS42N3YyLjkyYS40LjQgMCAwIDEtLjE5LjQuNDEuNDEgMCAwIDEtLjQ1IDAgLjQuNCAwIDAgMS0uMTktLjR2LTkuMTdhMi4wOSAyLjA5IDAgMCAwLTIuNjEtMiAyLjE2IDIuMTYgMCAwIDAtMS41NiAyLjEzdjEyLjM3YS40LjQgMCAwIDEtLjE5LjQuNDEuNDEgMCAwIDEtLjQ1IDAgLjQuNCAwIDAgMS0uMTktLjR2LTkuMTdhMi4wNyAyLjA3IDAgMCAwLTQuMTEtLjM2IDIuNCAyLjQgMCAwIDAtLjA1LjQ2djJMMTAgOS4xMzZ6Ii8+JiN4YTs8L3N2Zz4=;" vertex="1" parent="EZ0jeiB98gC51kCzS3ux-1">
                    <mxGeometry x="99" y="200" width="48.24" height="41" as="geometry"/>
                </mxCell>
                <mxCell id="rYyZD-xNqTDl_huKkhzn-27" style="edgeStyle=none;html=1;" edge="1" parent="EZ0jeiB98gC51kCzS3ux-1" source="rYyZD-xNqTDl_huKkhzn-8" target="rYyZD-xNqTDl_huKkhzn-10">
                    <mxGeometry relative="1" as="geometry"/>
                </mxCell>
                <mxCell id="rYyZD-xNqTDl_huKkhzn-8" value="" style="strokeColor=#dddddd;shadow=1;strokeWidth=1;rounded=1;absoluteArcSize=1;arcSize=2;" vertex="1" parent="EZ0jeiB98gC51kCzS3ux-1">
                    <mxGeometry x="414" y="187" width="110" height="60" as="geometry"/>
                </mxCell>
                <mxCell id="rYyZD-xNqTDl_huKkhzn-9" value="Speech&#10;API" style="sketch=0;dashed=0;connectable=0;html=1;fillColor=#5184F3;strokeColor=none;shape=mxgraph.gcp2.hexIcon;prIcon=cloud_speech_api;part=1;labelPosition=right;verticalLabelPosition=middle;align=left;verticalAlign=middle;spacingLeft=5;fontColor=#999999;fontSize=12;" vertex="1" parent="rYyZD-xNqTDl_huKkhzn-8">
                    <mxGeometry y="0.5" width="44" height="39" relative="1" as="geometry">
                        <mxPoint x="5" y="-19.5" as="offset"/>
                    </mxGeometry>
                </mxCell>
                <mxCell id="rYyZD-xNqTDl_huKkhzn-10" value="" style="shape=mxgraph.gcp2.doubleRect;strokeColor=#dddddd;shadow=1;strokeWidth=1;" vertex="1" parent="EZ0jeiB98gC51kCzS3ux-1">
                    <mxGeometry x="365" y="40" width="208" height="68" as="geometry"/>
                </mxCell>
                <mxCell id="rYyZD-xNqTDl_huKkhzn-11" value="&lt;font color=&quot;#000000&quot;&gt;Name&lt;/font&gt;&lt;br&gt;Advanced Solutions Lab" style="sketch=0;dashed=0;connectable=0;html=1;fillColor=#5184F3;strokeColor=none;shape=mxgraph.gcp2.hexIcon;prIcon=advanced_solutions_lab;part=1;labelPosition=right;verticalLabelPosition=middle;align=left;verticalAlign=middle;spacingLeft=5;fontColor=#999999;fontSize=12;" vertex="1" parent="rYyZD-xNqTDl_huKkhzn-10">
                    <mxGeometry y="0.5" width="44" height="39" relative="1" as="geometry">
                        <mxPoint x="5" y="-19.5" as="offset"/>
                    </mxGeometry>
                </mxCell>
                <mxCell id="rYyZD-xNqTDl_huKkhzn-15" value="" style="image;html=1;image=img/lib/clip_art/computers/Database_128x128.png" vertex="1" parent="EZ0jeiB98gC51kCzS3ux-1">
                    <mxGeometry x="617" y="148" width="120" height="134" as="geometry"/>
                </mxCell>
                <mxCell id="rYyZD-xNqTDl_huKkhzn-16" value="" style="sketch=0;aspect=fixed;html=1;points=[];align=center;image;fontSize=12;image=img/lib/mscae/Machine_Learning_Service_Workspaces.svg;" vertex="1" parent="EZ0jeiB98gC51kCzS3ux-1">
                    <mxGeometry x="176" y="194" width="46.36" height="50.39" as="geometry"/>
                </mxCell>
                <mxCell id="rYyZD-xNqTDl_huKkhzn-22" style="edgeStyle=none;html=1;" edge="1" parent="EZ0jeiB98gC51kCzS3ux-1" source="rYyZD-xNqTDl_huKkhzn-17" target="rYyZD-xNqTDl_huKkhzn-18">
                    <mxGeometry relative="1" as="geometry"/>
                </mxCell>
                <mxCell id="rYyZD-xNqTDl_huKkhzn-17" value="" style="sketch=0;points=[[0,0,0],[0.25,0,0],[0.5,0,0],[0.75,0,0],[1,0,0],[0,1,0],[0.25,1,0],[0.5,1,0],[0.75,1,0],[1,1,0],[0,0.25,0],[0,0.5,0],[0,0.75,0],[1,0.25,0],[1,0.5,0],[1,0.75,0]];outlineConnect=0;fontColor=#232F3E;gradientColor=#4AB29A;gradientDirection=north;fillColor=#116D5B;strokeColor=#ffffff;dashed=0;verticalLabelPosition=bottom;verticalAlign=top;align=center;html=1;fontSize=12;fontStyle=0;aspect=fixed;shape=mxgraph.aws4.resourceIcon;resIcon=mxgraph.aws4.neuron_ml_sdk;" vertex="1" parent="EZ0jeiB98gC51kCzS3ux-1">
                    <mxGeometry x="264" y="244" width="51" height="51" as="geometry"/>
                </mxCell>
                <mxCell id="rYyZD-xNqTDl_huKkhzn-26" style="edgeStyle=none;html=1;entryX=0;entryY=1;entryDx=0;entryDy=0;" edge="1" parent="EZ0jeiB98gC51kCzS3ux-1" source="rYyZD-xNqTDl_huKkhzn-18" target="rYyZD-xNqTDl_huKkhzn-10">
                    <mxGeometry relative="1" as="geometry"/>
                </mxCell>
                <mxCell id="rYyZD-xNqTDl_huKkhzn-18" value="" style="sketch=0;aspect=fixed;html=1;points=[];align=center;image;fontSize=12;image=img/lib/mscae/Machine_Learning_Studio_Web_Services.svg;" vertex="1" parent="EZ0jeiB98gC51kCzS3ux-1">
                    <mxGeometry x="254" y="167" width="58" height="58" as="geometry"/>
                </mxCell>
                <mxCell id="rYyZD-xNqTDl_huKkhzn-19" value="" style="sketch=0;aspect=fixed;html=1;points=[];align=center;image;fontSize=12;image=img/lib/mscae/Cognitive_Services.svg;" vertex="1" parent="EZ0jeiB98gC51kCzS3ux-1">
                    <mxGeometry x="264" y="111" width="50" height="30" as="geometry"/>
                </mxCell>
                <mxCell id="rYyZD-xNqTDl_huKkhzn-23" value="" style="sketch=0;aspect=fixed;html=1;points=[];align=center;image;fontSize=12;image=img/lib/mscae/Batch_AI.svg;" vertex="1" parent="EZ0jeiB98gC51kCzS3ux-1">
                    <mxGeometry x="186" y="114" width="36" height="50" as="geometry"/>
                </mxCell>
            </root>
        </mxGraphModel>
    </diagram>
</mxfile>